<svg width="800" height="800" viewBox="0 0 800 800" xmlns="http://www.w3.org/2000/svg" xmlns:xlink="http://www.w3.org/1999/xlink">
        <defs>
            

        <path id="rosquinha_ammout0" d="
            M 400,0
            A 400,400 0 0,1 635.1141009169893,76.39320225002103
            L 517.5570504584946,238.19660112501052
            A 200,200 0 0,0 400,200
            Z"/>

    

        <path id="rosquinha_ammout1" d="
            M 400,0
            A 400,400 0 0,1 780.4226065180615,523.6067977499789
            L 590.2113032590307,461.80339887498945
            A 200,200 0 0,0 400,200
            Z"/>

    

        <path id="rosquinha_ammout2" d="
            M 400,0
            A 400,400 0 0,1 635.1141009169893,723.606797749979
            L 517.5570504584946,561.8033988749895
            A 200,200 0 0,0 400,200
            Z"/>

    

        <path id="rosquinha_ammout3" d="
            M 400,0
            A 400,400 0 0,1 780.4226065180615,276.39320225002103
            L 590.2113032590307,338.19660112501055
            A 200,200 0 0,0 400,200
            Z"/>

    
        </defs>

        <g>
            <use xlink:href="#rosquinha_ammout0" transform="rotate(0 400 400)" class="vermelho"/>
            <use xlink:href="#rosquinha_ammout1" transform="rotate(36 400 400)" class="amarelo"/>
            <use xlink:href="#rosquinha_ammout2" transform="rotate(144 400 400)" class="azul"/>
            <use xlink:href="#rosquinha_ammout3" transform="rotate(288 400 400)" class="verde"/>
            
        </g>

    
        <style>
        .vermelho { fill: #ff4784; }
        .amarelo { fill: #ffc75f; }
        .azul { fill: #0081cf; }
        .verde { fill: #00c9a7; }
        .laranja { fill: #ff8066; }
        .violeta { fill: #d65db1; }
        .agua { fill: #51aff7; }
        .salmao { fill: #ff6f91; }
        .grama { fill: #008f7a; }
        .roxo { fill: #845ec2; }
        
        </style>
    </svg>